<?xml version="1.0" standalone="no"?>
 <!DOCTYPE svg PUBLIC "-//W3C//DTD SVG 1.1//EN" 
 "http://www.w3.org/Graphics/SVG/1.1/DTD/svg11.dtd"> 
<svg
  xmlns:svg="http://www.w3.org/2000/svg"
  xmlns="http://www.w3.org/2000/svg"
  xmlns:xlink="http://www.w3.org/1999/xlink"
  version="1.1"
  width="297.0022mm" height="210.0072mm" viewBox="0.0000 0.0000 297.0022 210.0072">
<title>SVG Image created as Kicad_T-SIM7600G-S3-Standard-ExpansionKit-Bottom Paste.svg date 2026/02/28 14:35:50 </title>
  <desc>Image generated by PCBNEW </desc>
<g style="fill:#000000; fill-opacity:1.0000;stroke:#000000; stroke-opacity:1.0000;
stroke-linecap:round; stroke-linejoin:round;"
 transform="translate(0 0) scale(1 1)">
<path style="fill:#000000; fill-opacity:1.0000; stroke:none;fill-rule:evenodd;"
d="M 160.7683,84.0660
160.7379,84.0721
160.7121,84.0893
160.6949,84.1151
160.6888,84.1455
160.6888,84.3045
160.6949,84.3349
160.7121,84.3607
160.7379,84.3779
160.7683,84.3840
160.9693,84.3840
160.9998,84.3779
161.0256,84.3607
161.0428,84.3349
161.0488,84.3045
161.0488,84.1455
161.0428,84.1151
161.0256,84.0893
160.9998,84.0721
160.9693,84.0660
Z" /> 
<path style="fill:#000000; fill-opacity:1.0000; stroke:none;fill-rule:evenodd;"
d="M 160.7683,84.7560
160.7379,84.7621
160.7121,84.7793
160.6949,84.8051
160.6888,84.8355
160.6888,84.9945
160.6949,85.0249
160.7121,85.0507
160.7379,85.0679
160.7683,85.0740
160.9693,85.0740
160.9998,85.0679
161.0256,85.0507
161.0428,85.0249
161.0488,84.9945
161.0488,84.8355
161.0428,84.8051
161.0256,84.7793
160.9998,84.7621
160.9693,84.7560
Z" /> 
<path style="fill:#000000; fill-opacity:1.0000; stroke:none;fill-rule:evenodd;"
d="M 159.7738,91.8140
159.7631,91.7605
159.7328,91.7150
159.6874,91.6847
159.6338,91.6740
159.3538,91.6740
159.3002,91.6847
159.2548,91.7150
159.2245,91.7605
159.2138,91.8140
159.2138,92.1540
159.2245,92.2076
159.2548,92.2530
159.3002,92.2834
159.3538,92.2940
159.6338,92.2940
159.6874,92.2834
159.7328,92.2530
159.7631,92.2076
159.7738,92.1540
Z" /> 
<path style="fill:#000000; fill-opacity:1.0000; stroke:none;fill-rule:evenodd;"
d="M 158.8138,91.8140
158.8031,91.7605
158.7728,91.7150
158.7274,91.6847
158.6738,91.6740
158.3938,91.6740
158.3402,91.6847
158.2948,91.7150
158.2645,91.7605
158.2538,91.8140
158.2538,92.1540
158.2645,92.2076
158.2948,92.2530
158.3402,92.2834
158.3938,92.2940
158.6738,92.2940
158.7274,92.2834
158.7728,92.2530
158.8031,92.2076
158.8138,92.1540
Z" /> 
<path style="fill:#000000; fill-opacity:1.0000; stroke:none;fill-rule:evenodd;"
d="M 165.3697,89.4215
166.9697,89.4215
166.9697,88.7215
165.3697,88.7215
Z" /> 
<path style="fill:#000000; fill-opacity:1.0000; stroke:none;fill-rule:evenodd;"
d="M 165.3697,90.5215
166.9697,90.5215
166.9697,89.8215
165.3697,89.8215
Z" /> 
<path style="fill:#000000; fill-opacity:1.0000; stroke:none;fill-rule:evenodd;"
d="M 165.3697,91.6215
166.9697,91.6215
166.9697,90.9215
165.3697,90.9215
Z" /> 
<path style="fill:#000000; fill-opacity:1.0000; stroke:none;fill-rule:evenodd;"
d="M 165.3697,92.7215
166.9697,92.7215
166.9697,92.0215
165.3697,92.0215
Z" /> 
<path style="fill:#000000; fill-opacity:1.0000; stroke:none;fill-rule:evenodd;"
d="M 165.3697,93.8215
166.9697,93.8215
166.9697,93.1215
165.3697,93.1215
Z" /> 
<path style="fill:#000000; fill-opacity:1.0000; stroke:none;fill-rule:evenodd;"
d="M 165.3697,94.9215
166.9697,94.9215
166.9697,94.2215
165.3697,94.2215
Z" /> 
<path style="fill:#000000; fill-opacity:1.0000; stroke:none;fill-rule:evenodd;"
d="M 165.3697,96.0215
166.9697,96.0215
166.9697,95.3215
165.3697,95.3215
Z" /> 
<path style="fill:#000000; fill-opacity:1.0000; stroke:none;fill-rule:evenodd;"
d="M 165.3697,97.1215
166.9697,97.1215
166.9697,96.4215
165.3697,96.4215
Z" /> 
<path style="fill:#000000; fill-opacity:1.0000; stroke:none;fill-rule:evenodd;"
d="M 165.3697,98.2215
166.9697,98.2215
166.9697,97.5215
165.3697,97.5215
Z" /> 
<path style="fill:#000000; fill-opacity:1.0000; stroke:none;fill-rule:evenodd;"
d="M 175.6697,99.6715
177.8697,99.6715
177.8697,98.4715
175.6697,98.4715
Z" /> 
<path style="fill:#000000; fill-opacity:1.0000; stroke:none;fill-rule:evenodd;"
d="M 166.4197,99.6715
167.9197,99.6715
167.9197,98.4715
166.4197,98.4715
Z" /> 
<path style="fill:#000000; fill-opacity:1.0000; stroke:none;fill-rule:evenodd;"
d="M 166.4197,85.2715
167.9197,85.2715
167.9197,83.6715
166.4197,83.6715
Z" /> 
<path style="fill:#000000; fill-opacity:1.0000; stroke:none;fill-rule:evenodd;"
d="M 175.6697,84.1715
177.8697,84.1715
177.8697,82.9715
175.6697,82.9715
Z" /> 
<path style="fill:#000000; fill-opacity:1.0000; stroke:none;fill-rule:evenodd;"
d="M 163.9022,104.3165
163.9022,102.7165
161.6022,102.7165
161.6022,104.3165
Z" /> 
<path style="fill:#000000; fill-opacity:1.0000; stroke:none;fill-rule:evenodd;"
d="M 156.6022,104.4165
156.6022,102.8165
154.3022,102.8165
154.3022,104.4165
Z" /> 
<path style="fill:#000000; fill-opacity:1.0000; stroke:none;fill-rule:evenodd;"
d="M 163.9022,101.4165
163.9022,99.8165
161.6022,99.8165
161.6022,101.4165
Z" /> 
<path style="fill:#000000; fill-opacity:1.0000; stroke:none;fill-rule:evenodd;"
d="M 156.6022,97.3165
156.6022,95.7165
154.3022,95.7165
154.3022,97.3165
Z" /> 
<path style="fill:#000000; fill-opacity:1.0000; stroke:none;fill-rule:evenodd;"
d="M 163.9022,95.7165
163.9022,94.1165
161.6022,94.1165
161.6022,95.7165
Z" /> 
<path style="fill:#000000; fill-opacity:1.0000; stroke:none;fill-rule:evenodd;"
d="M 156.6022,95.1165
156.6022,93.5165
154.3022,93.5165
154.3022,95.1165
Z" /> 
<path style="fill:#000000; fill-opacity:1.0000; stroke:none;fill-rule:evenodd;"
d="M 161.6638,91.8240
161.6531,91.7705
161.6228,91.7250
161.5774,91.6947
161.5238,91.6840
161.2438,91.6840
161.1902,91.6947
161.1448,91.7250
161.1145,91.7705
161.1038,91.8240
161.1038,92.1640
161.1145,92.2176
161.1448,92.2630
161.1902,92.2934
161.2438,92.3040
161.5238,92.3040
161.5774,92.2934
161.6228,92.2630
161.6531,92.2176
161.6638,92.1640
Z" /> 
<path style="fill:#000000; fill-opacity:1.0000; stroke:none;fill-rule:evenodd;"
d="M 160.7038,91.8240
160.6931,91.7705
160.6628,91.7250
160.6174,91.6947
160.5638,91.6840
160.2838,91.6840
160.2302,91.6947
160.1848,91.7250
160.1545,91.7705
160.1438,91.8240
160.1438,92.1640
160.1545,92.2176
160.1848,92.2630
160.2302,92.2934
160.2838,92.3040
160.5638,92.3040
160.6174,92.2934
160.6628,92.2630
160.6931,92.2176
160.7038,92.1640
Z" /> 
<path style="fill:#000000; fill-opacity:1.0000; stroke:none;fill-rule:evenodd;"
d="M 154.6838,87.4840
154.6945,87.5376
154.7248,87.5830
154.7702,87.6134
154.8238,87.6240
155.1038,87.6240
155.1574,87.6134
155.2028,87.5830
155.2331,87.5376
155.2438,87.4840
155.2438,87.1440
155.2331,87.0905
155.2028,87.0450
155.1574,87.0147
155.1038,87.0040
154.8238,87.0040
154.7702,87.0147
154.7248,87.0450
154.6945,87.0905
154.6838,87.1440
Z" /> 
<path style="fill:#000000; fill-opacity:1.0000; stroke:none;fill-rule:evenodd;"
d="M 155.6438,87.4840
155.6545,87.5376
155.6848,87.5830
155.7302,87.6134
155.7838,87.6240
156.0638,87.6240
156.1174,87.6134
156.1628,87.5830
156.1931,87.5376
156.2038,87.4840
156.2038,87.1440
156.1931,87.0905
156.1628,87.0450
156.1174,87.0147
156.0638,87.0040
155.7838,87.0040
155.7302,87.0147
155.6848,87.0450
155.6545,87.0905
155.6438,87.1440
Z" /> 
<path style="fill:#000000; fill-opacity:1.0000; stroke:none;fill-rule:evenodd;"
d="M 153.4933,90.4800
153.4629,90.4861
153.4371,90.5033
153.4199,90.5291
153.4138,90.5595
153.4138,90.7185
153.4199,90.7490
153.4371,90.7747
153.4629,90.7920
153.4933,90.7980
153.6943,90.7980
153.7247,90.7920
153.7505,90.7747
153.7677,90.7490
153.7738,90.7185
153.7738,90.5595
153.7677,90.5291
153.7505,90.5033
153.7247,90.4861
153.6943,90.4800
Z" /> 
<path style="fill:#000000; fill-opacity:1.0000; stroke:none;fill-rule:evenodd;"
d="M 153.4933,91.1700
153.4629,91.1761
153.4371,91.1933
153.4199,91.2191
153.4138,91.2495
153.4138,91.4085
153.4199,91.4390
153.4371,91.4647
153.4629,91.4820
153.4933,91.4880
153.6943,91.4880
153.7247,91.4820
153.7505,91.4647
153.7677,91.4390
153.7738,91.4085
153.7738,91.2495
153.7677,91.2191
153.7505,91.1933
153.7247,91.1761
153.6943,91.1700
Z" /> 
<path style="fill:#000000; fill-opacity:1.0000; stroke:none;fill-rule:evenodd;"
d="M 152.7233,90.4800
152.6929,90.4861
152.6671,90.5033
152.6499,90.5291
152.6438,90.5595
152.6438,90.7185
152.6499,90.7490
152.6671,90.7747
152.6929,90.7920
152.7233,90.7980
152.9243,90.7980
152.9547,90.7920
152.9805,90.7747
152.9977,90.7490
153.0038,90.7185
153.0038,90.5595
152.9977,90.5291
152.9805,90.5033
152.9547,90.4861
152.9243,90.4800
Z" /> 
<path style="fill:#000000; fill-opacity:1.0000; stroke:none;fill-rule:evenodd;"
d="M 152.7233,91.1700
152.6929,91.1761
152.6671,91.1933
152.6499,91.2191
152.6438,91.2495
152.6438,91.4085
152.6499,91.4390
152.6671,91.4647
152.6929,91.4820
152.7233,91.4880
152.9243,91.4880
152.9547,91.4820
152.9805,91.4647
152.9977,91.4390
153.0038,91.4085
153.0038,91.2495
152.9977,91.2191
152.9805,91.1933
152.9547,91.1761
152.9243,91.1700
Z" /> 
<path style="fill:#000000; fill-opacity:1.0000; stroke:none;fill-rule:evenodd;"
d="M 155.5078,89.7735
155.5017,89.7431
155.4845,89.7173
155.4587,89.7001
155.4283,89.6940
155.2693,89.6940
155.2389,89.7001
155.2131,89.7173
155.1959,89.7431
155.1898,89.7735
155.1898,89.9745
155.1959,90.0050
155.2131,90.0307
155.2389,90.0480
155.2693,90.0540
155.4283,90.0540
155.4587,90.0480
155.4845,90.0307
155.5017,90.0050
155.5078,89.9745
Z" /> 
<path style="fill:#000000; fill-opacity:1.0000; stroke:none;fill-rule:evenodd;"
d="M 154.8178,89.7735
154.8117,89.7431
154.7945,89.7173
154.7687,89.7001
154.7383,89.6940
154.5793,89.6940
154.5489,89.7001
154.5231,89.7173
154.5059,89.7431
154.4998,89.7735
154.4998,89.9745
154.5059,90.0050
154.5231,90.0307
154.5489,90.0480
154.5793,90.0540
154.7383,90.0540
154.7687,90.0480
154.7945,90.0307
154.8117,90.0050
154.8178,89.9745
Z" /> 
<path style="fill:#000000; fill-opacity:1.0000; stroke:none;fill-rule:evenodd;"
d="M 159.4527,85.0740
159.4831,85.0679
159.5089,85.0507
159.5261,85.0249
159.5322,84.9945
159.5322,84.8355
159.5261,84.8051
159.5089,84.7793
159.4831,84.7621
159.4527,84.7560
159.2517,84.7560
159.2213,84.7621
159.1955,84.7793
159.1783,84.8051
159.1722,84.8355
159.1722,84.9945
159.1783,85.0249
159.1955,85.0507
159.2213,85.0679
159.2517,85.0740
Z" /> 
<path style="fill:#000000; fill-opacity:1.0000; stroke:none;fill-rule:evenodd;"
d="M 159.4527,84.3840
159.4831,84.3779
159.5089,84.3607
159.5261,84.3349
159.5322,84.3045
159.5322,84.1455
159.5261,84.1151
159.5089,84.0893
159.4831,84.0721
159.4527,84.0660
159.2517,84.0660
159.2213,84.0721
159.1955,84.0893
159.1783,84.1151
159.1722,84.1455
159.1722,84.3045
159.1783,84.3349
159.1955,84.3607
159.2213,84.3779
159.2517,84.3840
Z" /> 
<path style="fill:#000000; fill-opacity:1.0000; stroke:none;fill-rule:evenodd;"
d="M 164.0362,86.4495
164.0301,86.4191
164.0129,86.3933
163.9871,86.3761
163.9567,86.3700
163.7977,86.3700
163.7673,86.3761
163.7415,86.3933
163.7243,86.4191
163.7182,86.4495
163.7182,86.6505
163.7243,86.6809
163.7415,86.7067
163.7673,86.7239
163.7977,86.7300
163.9567,86.7300
163.9871,86.7239
164.0129,86.7067
164.0301,86.6809
164.0362,86.6505
Z" /> 
<path style="fill:#000000; fill-opacity:1.0000; stroke:none;fill-rule:evenodd;"
d="M 163.3462,86.4495
163.3401,86.4191
163.3229,86.3933
163.2971,86.3761
163.2667,86.3700
163.1077,86.3700
163.0773,86.3761
163.0515,86.3933
163.0343,86.4191
163.0282,86.4495
163.0282,86.6505
163.0343,86.6809
163.0515,86.7067
163.0773,86.7239
163.1077,86.7300
163.2667,86.7300
163.2971,86.7239
163.3229,86.7067
163.3401,86.6809
163.3462,86.6505
Z" /> 
</g>
<g style="fill:#000000; fill-opacity:1.0000; stroke:none;">
<circle cx="151.0022" cy="97.9500" r="0.4500" /> 
<path style="fill:#000000; fill-opacity:1.0000; stroke:none;fill-rule:evenodd;"
d="M 150.1582,97.8080
150.1657,97.7660
150.1757,97.7250
150.1877,97.6840
150.2017,97.6440
150.2177,97.6050
150.2357,97.5665
150.2557,97.5290
150.2772,97.4925
150.3007,97.4570
150.3257,97.4230
150.3527,97.3900
150.3812,97.3585
150.4112,97.3290
150.4427,97.3005
150.4752,97.2735
150.5092,97.2480
150.5447,97.2250
150.5812,97.2030
150.6187,97.1835
150.6572,97.1655
150.6967,97.1495
150.7367,97.1355
150.7772,97.1235
150.8187,97.1135
150.8602,97.1055
150.9022,97.1000
150.9022,96.5000
150.8477,96.5045
150.7932,96.5115
150.7392,96.5200
150.6852,96.5310
150.6322,96.5440
150.5792,96.5590
150.5272,96.5755
150.4757,96.5945
150.4247,96.6150
150.3747,96.6380
150.3257,96.6625
150.2777,96.6890
150.2307,96.7170
150.1847,96.7470
150.1397,96.7785
150.0962,96.8120
150.0542,96.8470
150.0132,96.8835
149.9737,96.9215
149.9357,96.9610
149.8992,97.0015
149.8642,97.0440
149.8307,97.0875
149.7992,97.1325
149.7692,97.1785
149.7412,97.2255
149.7147,97.2735
149.6902,97.3225
149.6677,97.3725
149.6467,97.4230
149.6282,97.4745
149.6112,97.5270
149.5962,97.5795
149.5832,97.6330
149.5727,97.6865
149.5637,97.7410
149.5572,97.7950
149.5522,97.8500
150.1522,97.8500
Z" /> 
<path style="fill:#000000; fill-opacity:1.0000; stroke:none;fill-rule:evenodd;"
d="M 150.9022,98.8000
150.8602,98.7940
150.8187,98.7865
150.7772,98.7765
150.7367,98.7645
150.6967,98.7505
150.6572,98.7345
150.6187,98.7165
150.5812,98.6965
150.5447,98.6750
150.5097,98.6515
150.4752,98.6265
150.4427,98.5995
150.4112,98.5710
150.3812,98.5410
150.3527,98.5095
150.3257,98.4770
150.3007,98.4425
150.2772,98.4075
150.2557,98.3710
150.2357,98.3335
150.2177,98.2950
150.2017,98.2555
150.1877,98.2155
150.1757,98.1750
150.1657,98.1335
150.1582,98.0920
150.1522,98.0500
149.5522,98.0500
149.5567,98.1045
149.5637,98.1590
149.5727,98.2130
149.5832,98.2670
149.5962,98.3200
149.6112,98.3730
149.6277,98.4250
149.6467,98.4765
149.6677,98.5275
149.6902,98.5775
149.7147,98.6265
149.7412,98.6745
149.7692,98.7215
149.7992,98.7675
149.8307,98.8125
149.8642,98.8560
149.8992,98.8980
149.9357,98.9390
149.9737,98.9785
150.0132,99.0165
150.0542,99.0530
150.0962,99.0880
150.1397,99.1215
150.1847,99.1530
150.2307,99.1830
150.2777,99.2110
150.3257,99.2375
150.3747,99.2620
150.4247,99.2845
150.4757,99.3055
150.5272,99.3245
150.5792,99.3410
150.6317,99.3560
150.6852,99.3690
150.7392,99.3795
150.7932,99.3885
150.8477,99.3955
150.9022,99.4000
Z" /> 
<path style="fill:#000000; fill-opacity:1.0000; stroke:none;fill-rule:evenodd;"
d="M 152.4477,97.7955
152.4407,97.7410
152.4317,97.6870
152.4212,97.6330
152.4082,97.5800
152.3932,97.5270
152.3767,97.4750
152.3577,97.4235
152.3367,97.3725
152.3142,97.3225
152.2897,97.2735
152.2632,97.2255
152.2352,97.1785
152.2052,97.1325
152.1737,97.0875
152.1402,97.0440
152.1052,97.0020
152.0687,96.9610
152.0307,96.9215
151.9912,96.8835
151.9502,96.8470
151.9082,96.8120
151.8647,96.7785
151.8197,96.7470
151.7737,96.7170
151.7267,96.6890
151.6787,96.6625
151.6297,96.6380
151.5797,96.6155
151.5287,96.5945
151.4772,96.5755
151.4252,96.5590
151.3727,96.5440
151.3192,96.5310
151.2652,96.5205
151.2112,96.5115
151.1567,96.5045
151.1022,96.5000
151.1022,97.1000
151.1442,97.1060
151.1857,97.1135
151.2272,97.1235
151.2677,97.1355
151.3077,97.1495
151.3472,97.1655
151.3857,97.1835
151.4232,97.2035
151.4597,97.2250
151.4947,97.2485
151.5292,97.2735
151.5617,97.3005
151.5932,97.3290
151.6232,97.3590
151.6517,97.3905
151.6787,97.4230
151.7037,97.4575
151.7272,97.4925
151.7487,97.5290
151.7687,97.5665
151.7867,97.6050
151.8027,97.6445
151.8167,97.6845
151.8287,97.7250
151.8387,97.7665
151.8462,97.8080
151.8522,97.8500
152.4522,97.8500
Z" /> 
<path style="fill:#000000; fill-opacity:1.0000; stroke:none;fill-rule:evenodd;"
d="M 151.1567,99.3955
151.2112,99.3885
151.2652,99.3800
151.3192,99.3690
151.3722,99.3560
151.4252,99.3410
151.4772,99.3245
151.5287,99.3055
151.5797,99.2850
151.6297,99.2620
151.6787,99.2375
151.7267,99.2110
151.7737,99.1830
151.8197,99.1530
151.8647,99.1215
151.9082,99.0880
151.9502,99.0530
151.9912,99.0165
152.0307,98.9785
152.0687,98.9390
152.1052,98.8985
152.1402,98.8560
152.1737,98.8125
152.2052,98.7675
152.2352,98.7215
152.2632,98.6745
152.2897,98.6265
152.3142,98.5775
152.3367,98.5275
152.3577,98.4770
152.3762,98.4255
152.3932,98.3730
152.4082,98.3205
152.4212,98.2670
152.4317,98.2135
152.4407,98.1590
152.4472,98.1050
152.4522,98.0500
151.8522,98.0500
151.8462,98.0920
151.8387,98.1340
151.8287,98.1750
151.8167,98.2160
151.8027,98.2560
151.7867,98.2950
151.7687,98.3335
151.7487,98.3710
151.7272,98.4075
151.7037,98.4430
151.6787,98.4770
151.6517,98.5100
151.6232,98.5415
151.5932,98.5710
151.5617,98.5995
151.5292,98.6265
151.4952,98.6520
151.4597,98.6750
151.4232,98.6970
151.3857,98.7165
151.3472,98.7345
151.3077,98.7505
151.2677,98.7645
151.2272,98.7765
151.1857,98.7865
151.1442,98.7945
151.1022,98.8000
151.1022,99.4000
Z" /> 
<path style="fill:#000000; fill-opacity:1.0000; stroke:none;fill-rule:evenodd;"
d="M 160.0100,84.0660
159.9796,84.0721
159.9538,84.0893
159.9366,84.1151
159.9305,84.1455
159.9305,84.3045
159.9366,84.3349
159.9538,84.3607
159.9796,84.3779
160.0100,84.3840
160.2110,84.3840
160.2414,84.3779
160.2672,84.3607
160.2845,84.3349
160.2905,84.3045
160.2905,84.1455
160.2845,84.1151
160.2672,84.0893
160.2414,84.0721
160.2110,84.0660
Z" /> 
<path style="fill:#000000; fill-opacity:1.0000; stroke:none;fill-rule:evenodd;"
d="M 160.0100,84.7560
159.9796,84.7621
159.9538,84.7793
159.9366,84.8051
159.9305,84.8355
159.9305,84.9945
159.9366,85.0249
159.9538,85.0507
159.9796,85.0679
160.0100,85.0740
160.2110,85.0740
160.2414,85.0679
160.2672,85.0507
160.2845,85.0249
160.2905,84.9945
160.2905,84.8355
160.2845,84.8051
160.2672,84.7793
160.2414,84.7621
160.2110,84.7560
Z" /> 
<path style="fill:#000000; fill-opacity:1.0000; stroke:none;fill-rule:evenodd;"
d="M 162.2850,84.0660
162.2546,84.0721
162.2288,84.0893
162.2115,84.1151
162.2055,84.1455
162.2055,84.3045
162.2115,84.3349
162.2288,84.3607
162.2546,84.3779
162.2850,84.3840
162.4860,84.3840
162.5164,84.3779
162.5422,84.3607
162.5594,84.3349
162.5655,84.3045
162.5655,84.1455
162.5594,84.1151
162.5422,84.0893
162.5164,84.0721
162.4860,84.0660
Z" /> 
<path style="fill:#000000; fill-opacity:1.0000; stroke:none;fill-rule:evenodd;"
d="M 162.2850,84.7560
162.2546,84.7621
162.2288,84.7793
162.2115,84.8051
162.2055,84.8355
162.2055,84.9945
162.2115,85.0249
162.2288,85.0507
162.2546,85.0679
162.2850,85.0740
162.4860,85.0740
162.5164,85.0679
162.5422,85.0507
162.5594,85.0249
162.5655,84.9945
162.5655,84.8355
162.5594,84.8051
162.5422,84.7793
162.5164,84.7621
162.4860,84.7560
Z" /> 
<path style="fill:#000000; fill-opacity:1.0000; stroke:none;fill-rule:evenodd;"
d="M 168.7838,103.5440
170.1838,103.5440
170.1838,103.0440
168.7838,103.0440
Z" /> 
<path style="fill:#000000; fill-opacity:1.0000; stroke:none;fill-rule:evenodd;"
d="M 168.7838,102.5440
170.1838,102.5440
170.1838,102.0440
168.7838,102.0440
Z" /> 
<path style="fill:#000000; fill-opacity:1.0000; stroke:none;fill-rule:evenodd;"
d="M 166.0338,101.7940
168.0338,101.7940
168.0338,100.5940
166.0338,100.5940
Z" /> 
<path style="fill:#000000; fill-opacity:1.0000; stroke:none;fill-rule:evenodd;"
d="M 166.0338,104.9940
168.0338,104.9940
168.0338,103.7940
166.0338,103.7940
Z" /> 
<path style="fill:#000000; fill-opacity:1.0000; stroke:none;fill-rule:evenodd;"
d="M 153.6943,90.0180
153.7247,90.0120
153.7505,89.9947
153.7677,89.9690
153.7738,89.9385
153.7738,89.7795
153.7677,89.7491
153.7505,89.7233
153.7247,89.7061
153.6943,89.7000
153.4933,89.7000
153.4629,89.7061
153.4371,89.7233
153.4199,89.7491
153.4138,89.7795
153.4138,89.9385
153.4199,89.9690
153.4371,89.9947
153.4629,90.0120
153.4933,90.0180
Z" /> 
<path style="fill:#000000; fill-opacity:1.0000; stroke:none;fill-rule:evenodd;"
d="M 153.6943,89.3280
153.7247,89.3220
153.7505,89.3047
153.7677,89.2790
153.7738,89.2485
153.7738,89.0895
153.7677,89.0591
153.7505,89.0333
153.7247,89.0161
153.6943,89.0100
153.4933,89.0100
153.4629,89.0161
153.4371,89.0333
153.4199,89.0591
153.4138,89.0895
153.4138,89.2485
153.4199,89.2790
153.4371,89.3047
153.4629,89.3220
153.4933,89.3280
Z" /> 
<path style="fill:#000000; fill-opacity:1.0000; stroke:none;fill-rule:evenodd;"
d="M 154.6838,88.4640
154.6945,88.5176
154.7248,88.5630
154.7702,88.5934
154.8238,88.6040
155.1038,88.6040
155.1574,88.5934
155.2028,88.5630
155.2331,88.5176
155.2438,88.4640
155.2438,88.1240
155.2331,88.0705
155.2028,88.0250
155.1574,87.9947
155.1038,87.9840
154.8238,87.9840
154.7702,87.9947
154.7248,88.0250
154.6945,88.0705
154.6838,88.1240
Z" /> 
<path style="fill:#000000; fill-opacity:1.0000; stroke:none;fill-rule:evenodd;"
d="M 155.6438,88.4640
155.6545,88.5176
155.6848,88.5630
155.7302,88.5934
155.7838,88.6040
156.0638,88.6040
156.1174,88.5934
156.1628,88.5630
156.1931,88.5176
156.2038,88.4640
156.2038,88.1240
156.1931,88.0705
156.1628,88.0250
156.1174,87.9947
156.0638,87.9840
155.7838,87.9840
155.7302,87.9947
155.6848,88.0250
155.6545,88.0705
155.6438,88.1240
Z" /> 
<path style="fill:#000000; fill-opacity:1.0000; stroke:none;fill-rule:evenodd;"
d="M 155.4978,90.5335
155.4917,90.5031
155.4745,90.4773
155.4487,90.4601
155.4183,90.4540
155.2593,90.4540
155.2289,90.4601
155.2031,90.4773
155.1859,90.5031
155.1798,90.5335
155.1798,90.7345
155.1859,90.7650
155.2031,90.7907
155.2289,90.8080
155.2593,90.8140
155.4183,90.8140
155.4487,90.8080
155.4745,90.7907
155.4917,90.7650
155.4978,90.7345
Z" /> 
<path style="fill:#000000; fill-opacity:1.0000; stroke:none;fill-rule:evenodd;"
d="M 154.8078,90.5335
154.8017,90.5031
154.7845,90.4773
154.7587,90.4601
154.7283,90.4540
154.5693,90.4540
154.5389,90.4601
154.5131,90.4773
154.4959,90.5031
154.4898,90.5335
154.4898,90.7345
154.4959,90.7650
154.5131,90.7907
154.5389,90.8080
154.5693,90.8140
154.7283,90.8140
154.7587,90.8080
154.7845,90.7907
154.8017,90.7650
154.8078,90.7345
Z" /> 
<path style="fill:#000000; fill-opacity:1.0000; stroke:none;fill-rule:evenodd;"
d="M 158.6122,90.0750
158.6122,90.7400
158.8922,90.7400
158.8922,90.0750
Z" /> 
<path style="fill:#000000; fill-opacity:1.0000; stroke:none;fill-rule:evenodd;"
d="M 159.1122,90.0750
159.1122,90.7400
159.3922,90.7400
159.3922,90.0750
Z" /> 
<path style="fill:#000000; fill-opacity:1.0000; stroke:none;fill-rule:evenodd;"
d="M 159.6122,90.0750
159.6122,90.7400
159.8922,90.7400
159.8922,90.0750
Z" /> 
<path style="fill:#000000; fill-opacity:1.0000; stroke:none;fill-rule:evenodd;"
d="M 160.1122,90.0750
160.1122,90.7400
160.3922,90.7400
160.3922,90.0750
Z" /> 
<path style="fill:#000000; fill-opacity:1.0000; stroke:none;fill-rule:evenodd;"
d="M 160.6122,90.0750
160.6122,90.7400
160.8922,90.7400
160.8922,90.0750
Z" /> 
<path style="fill:#000000; fill-opacity:1.0000; stroke:none;fill-rule:evenodd;"
d="M 161.3272,89.3600
161.3272,89.6400
161.9922,89.6400
161.9922,89.3600
Z" /> 
<path style="fill:#000000; fill-opacity:1.0000; stroke:none;fill-rule:evenodd;"
d="M 161.3272,88.8600
161.3272,89.1400
161.9922,89.1400
161.9922,88.8600
Z" /> 
<path style="fill:#000000; fill-opacity:1.0000; stroke:none;fill-rule:evenodd;"
d="M 161.3272,88.3600
161.3272,88.6400
161.9922,88.6400
161.9922,88.3600
Z" /> 
<path style="fill:#000000; fill-opacity:1.0000; stroke:none;fill-rule:evenodd;"
d="M 161.3272,87.8600
161.3272,88.1400
161.9922,88.1400
161.9922,87.8600
Z" /> 
<path style="fill:#000000; fill-opacity:1.0000; stroke:none;fill-rule:evenodd;"
d="M 161.3272,87.3600
161.3272,87.6400
161.9922,87.6400
161.9922,87.3600
Z" /> 
<path style="fill:#000000; fill-opacity:1.0000; stroke:none;fill-rule:evenodd;"
d="M 160.6122,86.2600
160.6122,86.9250
160.8922,86.9250
160.8922,86.2600
Z" /> 
<path style="fill:#000000; fill-opacity:1.0000; stroke:none;fill-rule:evenodd;"
d="M 160.1122,86.2600
160.1122,86.9250
160.3922,86.9250
160.3922,86.2600
Z" /> 
<path style="fill:#000000; fill-opacity:1.0000; stroke:none;fill-rule:evenodd;"
d="M 159.6122,86.2600
159.6122,86.9250
159.8922,86.9250
159.8922,86.2600
Z" /> 
<path style="fill:#000000; fill-opacity:1.0000; stroke:none;fill-rule:evenodd;"
d="M 159.1122,86.2600
159.1122,86.9250
159.3922,86.9250
159.3922,86.2600
Z" /> 
<path style="fill:#000000; fill-opacity:1.0000; stroke:none;fill-rule:evenodd;"
d="M 158.6122,86.2600
158.6122,86.9250
158.8922,86.9250
158.8922,86.2600
Z" /> 
<path style="fill:#000000; fill-opacity:1.0000; stroke:none;fill-rule:evenodd;"
d="M 157.5122,87.3600
157.5122,87.6400
158.1772,87.6400
158.1772,87.3600
Z" /> 
<path style="fill:#000000; fill-opacity:1.0000; stroke:none;fill-rule:evenodd;"
d="M 157.5122,87.8600
157.5122,88.1400
158.1772,88.1400
158.1772,87.8600
Z" /> 
<path style="fill:#000000; fill-opacity:1.0000; stroke:none;fill-rule:evenodd;"
d="M 157.5122,88.3600
157.5122,88.6400
158.1772,88.6400
158.1772,88.3600
Z" /> 
<path style="fill:#000000; fill-opacity:1.0000; stroke:none;fill-rule:evenodd;"
d="M 157.5122,88.8600
157.5122,89.1400
158.1772,89.1400
158.1772,88.8600
Z" /> 
<path style="fill:#000000; fill-opacity:1.0000; stroke:none;fill-rule:evenodd;"
d="M 157.5122,89.3600
157.5122,89.6400
158.1772,89.6400
158.1772,89.3600
Z" /> 
<path style="fill:#000000; fill-opacity:1.0000; stroke:none;fill-rule:evenodd;"
d="M 158.7522,87.5000
158.7522,89.5000
160.7522,89.5000
160.7522,87.5000
Z" /> 
<path style="fill:#000000; fill-opacity:1.0000; stroke:none;fill-rule:evenodd;"
d="M 152.7333,89.0100
152.7029,89.0161
152.6771,89.0333
152.6599,89.0591
152.6538,89.0895
152.6538,89.2485
152.6599,89.2790
152.6771,89.3047
152.7029,89.3220
152.7333,89.3280
152.9343,89.3280
152.9647,89.3220
152.9905,89.3047
153.0077,89.2790
153.0138,89.2485
153.0138,89.0895
153.0077,89.0591
152.9905,89.0333
152.9647,89.0161
152.9343,89.0100
Z" /> 
<path style="fill:#000000; fill-opacity:1.0000; stroke:none;fill-rule:evenodd;"
d="M 152.7333,89.7000
152.7029,89.7061
152.6771,89.7233
152.6599,89.7491
152.6538,89.7795
152.6538,89.9385
152.6599,89.9690
152.6771,89.9947
152.7029,90.0120
152.7333,90.0180
152.9343,90.0180
152.9647,90.0120
152.9905,89.9947
153.0077,89.9690
153.0138,89.9385
153.0138,89.7795
153.0077,89.7491
152.9905,89.7233
152.9647,89.7061
152.9343,89.7000
Z" /> 
<path style="fill:#000000; fill-opacity:1.0000; stroke:none;fill-rule:evenodd;"
d="M 161.5267,84.0660
161.4962,84.0721
161.4704,84.0893
161.4532,84.1151
161.4472,84.1455
161.4472,84.3045
161.4532,84.3349
161.4704,84.3607
161.4962,84.3779
161.5267,84.3840
161.7277,84.3840
161.7581,84.3779
161.7839,84.3607
161.8011,84.3349
161.8072,84.3045
161.8072,84.1455
161.8011,84.1151
161.7839,84.0893
161.7581,84.0721
161.7277,84.0660
Z" /> 
<path style="fill:#000000; fill-opacity:1.0000; stroke:none;fill-rule:evenodd;"
d="M 161.5267,84.7560
161.4962,84.7621
161.4704,84.7793
161.4532,84.8051
161.4472,84.8355
161.4472,84.9945
161.4532,85.0249
161.4704,85.0507
161.4962,85.0679
161.5267,85.0740
161.7277,85.0740
161.7581,85.0679
161.7839,85.0507
161.8011,85.0249
161.8072,84.9945
161.8072,84.8355
161.8011,84.8051
161.7839,84.7793
161.7581,84.7621
161.7277,84.7560
Z" /> 
<path style="fill:#000000; fill-opacity:1.0000; stroke:none;fill-rule:evenodd;"
d="M 163.0098,85.8845
163.0159,85.9150
163.0331,85.9407
163.0589,85.9580
163.0893,85.9640
163.2483,85.9640
163.2787,85.9580
163.3045,85.9407
163.3217,85.9150
163.3278,85.8845
163.3278,85.6835
163.3217,85.6531
163.3045,85.6273
163.2787,85.6101
163.2483,85.6040
163.0893,85.6040
163.0589,85.6101
163.0331,85.6273
163.0159,85.6531
163.0098,85.6835
Z" /> 
<path style="fill:#000000; fill-opacity:1.0000; stroke:none;fill-rule:evenodd;"
d="M 163.6998,85.8845
163.7059,85.9150
163.7231,85.9407
163.7489,85.9580
163.7793,85.9640
163.9383,85.9640
163.9687,85.9580
163.9945,85.9407
164.0117,85.9150
164.0178,85.8845
164.0178,85.6835
164.0117,85.6531
163.9945,85.6273
163.9687,85.6101
163.9383,85.6040
163.7793,85.6040
163.7489,85.6101
163.7231,85.6273
163.7059,85.6531
163.6998,85.6835
Z" /> 
</g>
<g style="fill:#000000; fill-opacity:1.0000; stroke:none;">
<circle cx="151.1016" cy="103.4940" r="1.2500" /> 
</g>
<g style="fill:#000000; fill-opacity:1.0000; stroke:none;">
<circle cx="178.8638" cy="103.4940" r="1.2500" /> 
<path style="fill:#000000; fill-opacity:1.0000; stroke:none;fill-rule:evenodd;"
d="M 160.7688,84.0200
160.7306,84.0276
160.6981,84.0493
160.6765,84.0817
160.6688,84.1200
160.6688,84.3800
160.6765,84.4183
160.6981,84.4507
160.7306,84.4724
160.7688,84.4800
160.9688,84.4800
161.0071,84.4724
161.0396,84.4507
161.0612,84.4183
161.0688,84.3800
161.0688,84.1200
161.0612,84.0817
161.0396,84.0493
161.0071,84.0276
160.9688,84.0200
Z" /> 
<path style="fill:#000000; fill-opacity:1.0000; stroke:none;fill-rule:evenodd;"
d="M 160.7688,84.6600
160.7306,84.6676
160.6981,84.6893
160.6765,84.7217
160.6688,84.7600
160.6688,85.0200
160.6765,85.0583
160.6981,85.0907
160.7306,85.1124
160.7688,85.1200
160.9688,85.1200
161.0071,85.1124
161.0396,85.0907
161.0612,85.0583
161.0688,85.0200
161.0688,84.7600
161.0612,84.7217
161.0396,84.6893
161.0071,84.6676
160.9688,84.6600
Z" /> 
</g>
<g style="fill:#000000; fill-opacity:1.0000; stroke:none;">
<circle cx="154.4318" cy="83.7540" r="0.5000" /> 
</g>
<g style="fill:#000000; fill-opacity:1.0000; stroke:none;">
<circle cx="151.2938" cy="93.5940" r="0.5000" /> 
</g>
<g style="fill:#000000; fill-opacity:1.0000; stroke:none;">
<circle cx="151.1958" cy="83.7540" r="0.5000" /> 
<path style="fill:#000000; fill-opacity:1.0000; stroke:none;fill-rule:evenodd;"
d="M 159.7738,91.8140
159.7631,91.7605
159.7328,91.7150
159.6874,91.6847
159.6338,91.6740
159.3538,91.6740
159.3002,91.6847
159.2548,91.7150
159.2245,91.7605
159.2138,91.8140
159.2138,92.1540
159.2245,92.2076
159.2548,92.2530
159.3002,92.2834
159.3538,92.2940
159.6338,92.2940
159.6874,92.2834
159.7328,92.2530
159.7631,92.2076
159.7738,92.1540
Z" /> 
<path style="fill:#000000; fill-opacity:1.0000; stroke:none;fill-rule:evenodd;"
d="M 158.8138,91.8140
158.8031,91.7605
158.7728,91.7150
158.7274,91.6847
158.6738,91.6740
158.3938,91.6740
158.3402,91.6847
158.2948,91.7150
158.2645,91.7605
158.2538,91.8140
158.2538,92.1540
158.2645,92.2076
158.2948,92.2530
158.3402,92.2834
158.3938,92.2940
158.6738,92.2940
158.7274,92.2834
158.7728,92.2530
158.8031,92.2076
158.8138,92.1540
Z" /> 
</g>
<g style="fill:#000000; fill-opacity:1.0000; stroke:none;">
<circle cx="177.1697" cy="96.2715" r="0.6000" /> 
</g>
<g style="fill:#000000; fill-opacity:1.0000; stroke:none;">
<circle cx="177.1697" cy="88.2715" r="0.6000" /> 
<path style="fill:#000000; fill-opacity:1.0000; stroke:none;fill-rule:evenodd;"
d="M 165.3697,89.4215
166.9697,89.4215
166.9697,88.7215
165.3697,88.7215
Z" /> 
<path style="fill:#000000; fill-opacity:1.0000; stroke:none;fill-rule:evenodd;"
d="M 165.3697,90.5215
166.9697,90.5215
166.9697,89.8215
165.3697,89.8215
Z" /> 
<path style="fill:#000000; fill-opacity:1.0000; stroke:none;fill-rule:evenodd;"
d="M 165.3697,91.6215
166.9697,91.6215
166.9697,90.9215
165.3697,90.9215
Z" /> 
<path style="fill:#000000; fill-opacity:1.0000; stroke:none;fill-rule:evenodd;"
d="M 165.3697,92.7215
166.9697,92.7215
166.9697,92.0215
165.3697,92.0215
Z" /> 
<path style="fill:#000000; fill-opacity:1.0000; stroke:none;fill-rule:evenodd;"
d="M 165.3697,93.8215
166.9697,93.8215
166.9697,93.1215
165.3697,93.1215
Z" /> 
<path style="fill:#000000; fill-opacity:1.0000; stroke:none;fill-rule:evenodd;"
d="M 165.3697,94.9215
166.9697,94.9215
166.9697,94.2215
165.3697,94.2215
Z" /> 
<path style="fill:#000000; fill-opacity:1.0000; stroke:none;fill-rule:evenodd;"
d="M 165.3697,96.0215
166.9697,96.0215
166.9697,95.3215
165.3697,95.3215
Z" /> 
<path style="fill:#000000; fill-opacity:1.0000; stroke:none;fill-rule:evenodd;"
d="M 165.3697,97.1215
166.9697,97.1215
166.9697,96.4215
165.3697,96.4215
Z" /> 
<path style="fill:#000000; fill-opacity:1.0000; stroke:none;fill-rule:evenodd;"
d="M 165.3697,98.2215
166.9697,98.2215
166.9697,97.5215
165.3697,97.5215
Z" /> 
<path style="fill:#000000; fill-opacity:1.0000; stroke:none;fill-rule:evenodd;"
d="M 175.6697,99.6715
177.8697,99.6715
177.8697,98.4715
175.6697,98.4715
Z" /> 
<path style="fill:#000000; fill-opacity:1.0000; stroke:none;fill-rule:evenodd;"
d="M 166.4197,99.6715
167.9197,99.6715
167.9197,98.4715
166.4197,98.4715
Z" /> 
<path style="fill:#000000; fill-opacity:1.0000; stroke:none;fill-rule:evenodd;"
d="M 166.4197,85.2715
167.9197,85.2715
167.9197,83.6715
166.4197,83.6715
Z" /> 
<path style="fill:#000000; fill-opacity:1.0000; stroke:none;fill-rule:evenodd;"
d="M 175.6697,84.1715
177.8697,84.1715
177.8697,82.9715
175.6697,82.9715
Z" /> 
</g>
<g style="fill:#000000; fill-opacity:1.0000; stroke:none;">
<circle cx="149.5778" cy="87.8540" r="0.5000" /> 
<path style="fill:#000000; fill-opacity:1.0000; stroke:none;fill-rule:evenodd;"
d="M 163.9022,104.3165
163.9022,102.7165
161.6022,102.7165
161.6022,104.3165
Z" /> 
<path style="fill:#000000; fill-opacity:1.0000; stroke:none;fill-rule:evenodd;"
d="M 156.6022,104.4165
156.6022,102.8165
154.3022,102.8165
154.3022,104.4165
Z" /> 
<path style="fill:#000000; fill-opacity:1.0000; stroke:none;fill-rule:evenodd;"
d="M 163.9022,101.4165
163.9022,99.8165
161.6022,99.8165
161.6022,101.4165
Z" /> 
<path style="fill:#000000; fill-opacity:1.0000; stroke:none;fill-rule:evenodd;"
d="M 156.6022,97.3165
156.6022,95.7165
154.3022,95.7165
154.3022,97.3165
Z" /> 
<path style="fill:#000000; fill-opacity:1.0000; stroke:none;fill-rule:evenodd;"
d="M 163.9022,95.7165
163.9022,94.1165
161.6022,94.1165
161.6022,95.7165
Z" /> 
<path style="fill:#000000; fill-opacity:1.0000; stroke:none;fill-rule:evenodd;"
d="M 156.6022,95.1165
156.6022,93.5165
154.3022,93.5165
154.3022,95.1165
Z" /> 
<path style="fill:#000000; fill-opacity:1.0000; stroke:none;fill-rule:evenodd;"
d="M 161.6638,91.8240
161.6531,91.7705
161.6228,91.7250
161.5774,91.6947
161.5238,91.6840
161.2438,91.6840
161.1902,91.6947
161.1448,91.7250
161.1145,91.7705
161.1038,91.8240
161.1038,92.1640
161.1145,92.2176
161.1448,92.2630
161.1902,92.2934
161.2438,92.3040
161.5238,92.3040
161.5774,92.2934
161.6228,92.2630
161.6531,92.2176
161.6638,92.1640
Z" /> 
<path style="fill:#000000; fill-opacity:1.0000; stroke:none;fill-rule:evenodd;"
d="M 160.7038,91.8240
160.6931,91.7705
160.6628,91.7250
160.6174,91.6947
160.5638,91.6840
160.2838,91.6840
160.2302,91.6947
160.1848,91.7250
160.1545,91.7705
160.1438,91.8240
160.1438,92.1640
160.1545,92.2176
160.1848,92.2630
160.2302,92.2934
160.2838,92.3040
160.5638,92.3040
160.6174,92.2934
160.6628,92.2630
160.6931,92.2176
160.7038,92.1640
Z" /> 
<path style="fill:#000000; fill-opacity:1.0000; stroke:none;fill-rule:evenodd;"
d="M 154.6838,87.4840
154.6945,87.5376
154.7248,87.5830
154.7702,87.6134
154.8238,87.6240
155.1038,87.6240
155.1574,87.6134
155.2028,87.5830
155.2331,87.5376
155.2438,87.4840
155.2438,87.1440
155.2331,87.0905
155.2028,87.0450
155.1574,87.0147
155.1038,87.0040
154.8238,87.0040
154.7702,87.0147
154.7248,87.0450
154.6945,87.0905
154.6838,87.1440
Z" /> 
<path style="fill:#000000; fill-opacity:1.0000; stroke:none;fill-rule:evenodd;"
d="M 155.6438,87.4840
155.6545,87.5376
155.6848,87.5830
155.7302,87.6134
155.7838,87.6240
156.0638,87.6240
156.1174,87.6134
156.1628,87.5830
156.1931,87.5376
156.2038,87.4840
156.2038,87.1440
156.1931,87.0905
156.1628,87.0450
156.1174,87.0147
156.0638,87.0040
155.7838,87.0040
155.7302,87.0147
155.6848,87.0450
155.6545,87.0905
155.6438,87.1440
Z" /> 
<path style="fill:#000000; fill-opacity:1.0000; stroke:none;fill-rule:evenodd;"
d="M 153.4938,90.4340
153.4555,90.4416
153.4231,90.4633
153.4014,90.4958
153.3938,90.5340
153.3938,90.7940
153.4014,90.8323
153.4231,90.8647
153.4555,90.8864
153.4938,90.8940
153.6938,90.8940
153.7321,90.8864
153.7645,90.8647
153.7862,90.8323
153.7938,90.7940
153.7938,90.5340
153.7862,90.4958
153.7645,90.4633
153.7321,90.4416
153.6938,90.4340
Z" /> 
<path style="fill:#000000; fill-opacity:1.0000; stroke:none;fill-rule:evenodd;"
d="M 153.4938,91.0740
153.4555,91.0816
153.4231,91.1033
153.4014,91.1358
153.3938,91.1740
153.3938,91.4340
153.4014,91.4723
153.4231,91.5047
153.4555,91.5264
153.4938,91.5340
153.6938,91.5340
153.7321,91.5264
153.7645,91.5047
153.7862,91.4723
153.7938,91.4340
153.7938,91.1740
153.7862,91.1358
153.7645,91.1033
153.7321,91.0816
153.6938,91.0740
Z" /> 
<path style="fill:#000000; fill-opacity:1.0000; stroke:none;fill-rule:evenodd;"
d="M 152.7238,90.4340
152.6855,90.4416
152.6531,90.4633
152.6314,90.4958
152.6238,90.5340
152.6238,90.7940
152.6314,90.8323
152.6531,90.8647
152.6855,90.8864
152.7238,90.8940
152.9238,90.8940
152.9621,90.8864
152.9945,90.8647
153.0162,90.8323
153.0238,90.7940
153.0238,90.5340
153.0162,90.4958
152.9945,90.4633
152.9621,90.4416
152.9238,90.4340
Z" /> 
<path style="fill:#000000; fill-opacity:1.0000; stroke:none;fill-rule:evenodd;"
d="M 152.7238,91.0740
152.6855,91.0816
152.6531,91.1033
152.6314,91.1358
152.6238,91.1740
152.6238,91.4340
152.6314,91.4723
152.6531,91.5047
152.6855,91.5264
152.7238,91.5340
152.9238,91.5340
152.9621,91.5264
152.9945,91.5047
153.0162,91.4723
153.0238,91.4340
153.0238,91.1740
153.0162,91.1358
152.9945,91.1033
152.9621,91.0816
152.9238,91.0740
Z" /> 
<path style="fill:#000000; fill-opacity:1.0000; stroke:none;fill-rule:evenodd;"
d="M 155.5538,89.7740
155.5462,89.7358
155.5245,89.7033
155.4921,89.6816
155.4538,89.6740
155.1938,89.6740
155.1555,89.6816
155.1231,89.7033
155.1014,89.7358
155.0938,89.7740
155.0938,89.9740
155.1014,90.0123
155.1231,90.0447
155.1555,90.0664
155.1938,90.0740
155.4538,90.0740
155.4921,90.0664
155.5245,90.0447
155.5462,90.0123
155.5538,89.9740
Z" /> 
<path style="fill:#000000; fill-opacity:1.0000; stroke:none;fill-rule:evenodd;"
d="M 154.9138,89.7740
154.9062,89.7358
154.8845,89.7033
154.8521,89.6816
154.8138,89.6740
154.5538,89.6740
154.5155,89.6816
154.4831,89.7033
154.4614,89.7358
154.4538,89.7740
154.4538,89.9740
154.4614,90.0123
154.4831,90.0447
154.5155,90.0664
154.5538,90.0740
154.8138,90.0740
154.8521,90.0664
154.8845,90.0447
154.9062,90.0123
154.9138,89.9740
Z" /> 
</g>
<g style="fill:#000000; fill-opacity:1.0000; stroke:none;">
<circle cx="152.8138" cy="83.7540" r="0.5000" /> 
</g>
<g style="fill:#000000; fill-opacity:1.0000; stroke:none;">
<circle cx="149.5778" cy="85.3840" r="0.5000" /> 
<path style="fill:#000000; fill-opacity:1.0000; stroke:none;fill-rule:evenodd;"
d="M 159.4522,85.1200
159.4905,85.1124
159.5229,85.0907
159.5446,85.0583
159.5522,85.0200
159.5522,84.7600
159.5446,84.7217
159.5229,84.6893
159.4905,84.6676
159.4522,84.6600
159.2522,84.6600
159.2139,84.6676
159.1815,84.6893
159.1598,84.7217
159.1522,84.7600
159.1522,85.0200
159.1598,85.0583
159.1815,85.0907
159.2139,85.1124
159.2522,85.1200
Z" /> 
<path style="fill:#000000; fill-opacity:1.0000; stroke:none;fill-rule:evenodd;"
d="M 159.4522,84.4800
159.4905,84.4724
159.5229,84.4507
159.5446,84.4183
159.5522,84.3800
159.5522,84.1200
159.5446,84.0817
159.5229,84.0493
159.4905,84.0276
159.4522,84.0200
159.2522,84.0200
159.2139,84.0276
159.1815,84.0493
159.1598,84.0817
159.1522,84.1200
159.1522,84.3800
159.1598,84.4183
159.1815,84.4507
159.2139,84.4724
159.2522,84.4800
Z" /> 
<path style="fill:#000000; fill-opacity:1.0000; stroke:none;fill-rule:evenodd;"
d="M 164.0822,86.4500
164.0746,86.4117
164.0529,86.3793
164.0205,86.3576
163.9822,86.3500
163.7222,86.3500
163.6839,86.3576
163.6515,86.3793
163.6298,86.4117
163.6222,86.4500
163.6222,86.6500
163.6298,86.6883
163.6515,86.7207
163.6839,86.7424
163.7222,86.7500
163.9822,86.7500
164.0205,86.7424
164.0529,86.7207
164.0746,86.6883
164.0822,86.6500
Z" /> 
<path style="fill:#000000; fill-opacity:1.0000; stroke:none;fill-rule:evenodd;"
d="M 163.4422,86.4500
163.4346,86.4117
163.4129,86.3793
163.3805,86.3576
163.3422,86.3500
163.0822,86.3500
163.0439,86.3576
163.0115,86.3793
162.9898,86.4117
162.9822,86.4500
162.9822,86.6500
162.9898,86.6883
163.0115,86.7207
163.0439,86.7424
163.0822,86.7500
163.3422,86.7500
163.3805,86.7424
163.4129,86.7207
163.4346,86.6883
163.4422,86.6500
Z" /> 
</g>
<g style="fill:#000000; fill-opacity:1.0000; stroke:none;">
<circle cx="155.9222" cy="83.8400" r="0.5000" /> 
<path style="fill:#000000; fill-opacity:1.0000; stroke:none;fill-rule:evenodd;"
d="M 171.4022,104.8000
172.9022,104.8000
172.9022,103.3000
171.4022,103.3000
Z" /> 
</g>
<g style="fill:#000000; fill-opacity:1.0000; stroke:none;">
<circle cx="151.0022" cy="97.9500" r="0.4500" /> 
<path style="fill:#000000; fill-opacity:1.0000; stroke:none;fill-rule:evenodd;"
d="M 150.1582,97.8080
150.1657,97.7660
150.1757,97.7250
150.1877,97.6840
150.2017,97.6440
150.2177,97.6050
150.2357,97.5665
150.2557,97.5290
150.2772,97.4925
150.3007,97.4570
150.3257,97.4230
150.3527,97.3900
150.3812,97.3585
150.4112,97.3290
150.4427,97.3005
150.4752,97.2735
150.5092,97.2480
150.5447,97.2250
150.5812,97.2030
150.6187,97.1835
150.6572,97.1655
150.6967,97.1495
150.7367,97.1355
150.7772,97.1235
150.8187,97.1135
150.8602,97.1055
150.9022,97.1000
150.9022,96.5000
150.8477,96.5045
150.7932,96.5115
150.7392,96.5200
150.6852,96.5310
150.6322,96.5440
150.5792,96.5590
150.5272,96.5755
150.4757,96.5945
150.4247,96.6150
150.3747,96.6380
150.3257,96.6625
150.2777,96.6890
150.2307,96.7170
150.1847,96.7470
150.1397,96.7785
150.0962,96.8120
150.0542,96.8470
150.0132,96.8835
149.9737,96.9215
149.9357,96.9610
149.8992,97.0015
149.8642,97.0440
149.8307,97.0875
149.7992,97.1325
149.7692,97.1785
149.7412,97.2255
149.7147,97.2735
149.6902,97.3225
149.6677,97.3725
149.6467,97.4230
149.6282,97.4745
149.6112,97.5270
149.5962,97.5795
149.5832,97.6330
149.5727,97.6865
149.5637,97.7410
149.5572,97.7950
149.5522,97.8500
150.1522,97.8500
Z" /> 
<path style="fill:#000000; fill-opacity:1.0000; stroke:none;fill-rule:evenodd;"
d="M 150.9022,98.8000
150.8602,98.7940
150.8187,98.7865
150.7772,98.7765
150.7367,98.7645
150.6967,98.7505
150.6572,98.7345
150.6187,98.7165
150.5812,98.6965
150.5447,98.6750
150.5097,98.6515
150.4752,98.6265
150.4427,98.5995
150.4112,98.5710
150.3812,98.5410
150.3527,98.5095
150.3257,98.4770
150.3007,98.4425
150.2772,98.4075
150.2557,98.3710
150.2357,98.3335
150.2177,98.2950
150.2017,98.2555
150.1877,98.2155
150.1757,98.1750
150.1657,98.1335
150.1582,98.0920
150.1522,98.0500
149.5522,98.0500
149.5567,98.1045
149.5637,98.1590
149.5727,98.2130
149.5832,98.2670
149.5962,98.3200
149.6112,98.3730
149.6277,98.4250
149.6467,98.4765
149.6677,98.5275
149.6902,98.5775
149.7147,98.6265
149.7412,98.6745
149.7692,98.7215
149.7992,98.7675
149.8307,98.8125
149.8642,98.8560
149.8992,98.8980
149.9357,98.9390
149.9737,98.9785
150.0132,99.0165
150.0542,99.0530
150.0962,99.0880
150.1397,99.1215
150.1847,99.1530
150.2307,99.1830
150.2777,99.2110
150.3257,99.2375
150.3747,99.2620
150.4247,99.2845
150.4757,99.3055
150.5272,99.3245
150.5792,99.3410
150.6317,99.3560
150.6852,99.3690
150.7392,99.3795
150.7932,99.3885
150.8477,99.3955
150.9022,99.4000
Z" /> 
<path style="fill:#000000; fill-opacity:1.0000; stroke:none;fill-rule:evenodd;"
d="M 152.4477,97.7955
152.4407,97.7410
152.4317,97.6870
152.4212,97.6330
152.4082,97.5800
152.3932,97.5270
152.3767,97.4750
152.3577,97.4235
152.3367,97.3725
152.3142,97.3225
152.2897,97.2735
152.2632,97.2255
152.2352,97.1785
152.2052,97.1325
152.1737,97.0875
152.1402,97.0440
152.1052,97.0020
152.0687,96.9610
152.0307,96.9215
151.9912,96.8835
151.9502,96.8470
151.9082,96.8120
151.8647,96.7785
151.8197,96.7470
151.7737,96.7170
151.7267,96.6890
151.6787,96.6625
151.6297,96.6380
151.5797,96.6155
151.5287,96.5945
151.4772,96.5755
151.4252,96.5590
151.3727,96.5440
151.3192,96.5310
151.2652,96.5205
151.2112,96.5115
151.1567,96.5045
151.1022,96.5000
151.1022,97.1000
151.1442,97.1060
151.1857,97.1135
151.2272,97.1235
151.2677,97.1355
151.3077,97.1495
151.3472,97.1655
151.3857,97.1835
151.4232,97.2035
151.4597,97.2250
151.4947,97.2485
151.5292,97.2735
151.5617,97.3005
151.5932,97.3290
151.6232,97.3590
151.6517,97.3905
151.6787,97.4230
151.7037,97.4575
151.7272,97.4925
151.7487,97.5290
151.7687,97.5665
151.7867,97.6050
151.8027,97.6445
151.8167,97.6845
151.8287,97.7250
151.8387,97.7665
151.8462,97.8080
151.8522,97.8500
152.4522,97.8500
Z" /> 
<path style="fill:#000000; fill-opacity:1.0000; stroke:none;fill-rule:evenodd;"
d="M 151.1567,99.3955
151.2112,99.3885
151.2652,99.3800
151.3192,99.3690
151.3722,99.3560
151.4252,99.3410
151.4772,99.3245
151.5287,99.3055
151.5797,99.2850
151.6297,99.2620
151.6787,99.2375
151.7267,99.2110
151.7737,99.1830
151.8197,99.1530
151.8647,99.1215
151.9082,99.0880
151.9502,99.0530
151.9912,99.0165
152.0307,98.9785
152.0687,98.9390
152.1052,98.8985
152.1402,98.8560
152.1737,98.8125
152.2052,98.7675
152.2352,98.7215
152.2632,98.6745
152.2897,98.6265
152.3142,98.5775
152.3367,98.5275
152.3577,98.4770
152.3762,98.4255
152.3932,98.3730
152.4082,98.3205
152.4212,98.2670
152.4317,98.2135
152.4407,98.1590
152.4472,98.1050
152.4522,98.0500
151.8522,98.0500
151.8462,98.0920
151.8387,98.1340
151.8287,98.1750
151.8167,98.2160
151.8027,98.2560
151.7867,98.2950
151.7687,98.3335
151.7487,98.3710
151.7272,98.4075
151.7037,98.4430
151.6787,98.4770
151.6517,98.5100
151.6232,98.5415
151.5932,98.5710
151.5617,98.5995
151.5292,98.6265
151.4952,98.6520
151.4597,98.6750
151.4232,98.6970
151.3857,98.7165
151.3472,98.7345
151.3077,98.7505
151.2677,98.7645
151.2272,98.7765
151.1857,98.7865
151.1442,98.7945
151.1022,98.8000
151.1022,99.4000
Z" /> 
<path style="fill:#000000; fill-opacity:1.0000; stroke:none;fill-rule:evenodd;"
d="M 160.0105,84.0200
159.9723,84.0276
159.9398,84.0493
159.9181,84.0817
159.9105,84.1200
159.9105,84.3800
159.9181,84.4183
159.9398,84.4507
159.9723,84.4724
160.0105,84.4800
160.2105,84.4800
160.2488,84.4724
160.2812,84.4507
160.3029,84.4183
160.3105,84.3800
160.3105,84.1200
160.3029,84.0817
160.2812,84.0493
160.2488,84.0276
160.2105,84.0200
Z" /> 
<path style="fill:#000000; fill-opacity:1.0000; stroke:none;fill-rule:evenodd;"
d="M 160.0105,84.6600
159.9723,84.6676
159.9398,84.6893
159.9181,84.7217
159.9105,84.7600
159.9105,85.0200
159.9181,85.0583
159.9398,85.0907
159.9723,85.1124
160.0105,85.1200
160.2105,85.1200
160.2488,85.1124
160.2812,85.0907
160.3029,85.0583
160.3105,85.0200
160.3105,84.7600
160.3029,84.7217
160.2812,84.6893
160.2488,84.6676
160.2105,84.6600
Z" /> 
</g>
<g style="fill:#000000; fill-opacity:1.0000; stroke:none;">
<circle cx="157.6522" cy="83.8500" r="0.5000" /> 
<path style="fill:#000000; fill-opacity:1.0000; stroke:none;fill-rule:evenodd;"
d="M 171.3922,102.1300
172.8922,102.1300
172.8922,100.6300
171.3922,100.6300
Z" /> 
<path style="fill:#000000; fill-opacity:1.0000; stroke:none;fill-rule:evenodd;"
d="M 162.2855,84.0200
162.2472,84.0276
162.2148,84.0493
162.1931,84.0817
162.1855,84.1200
162.1855,84.3800
162.1931,84.4183
162.2148,84.4507
162.2472,84.4724
162.2855,84.4800
162.4855,84.4800
162.5237,84.4724
162.5562,84.4507
162.5779,84.4183
162.5855,84.3800
162.5855,84.1200
162.5779,84.0817
162.5562,84.0493
162.5237,84.0276
162.4855,84.0200
Z" /> 
<path style="fill:#000000; fill-opacity:1.0000; stroke:none;fill-rule:evenodd;"
d="M 162.2855,84.6600
162.2472,84.6676
162.2148,84.6893
162.1931,84.7217
162.1855,84.7600
162.1855,85.0200
162.1931,85.0583
162.2148,85.0907
162.2472,85.1124
162.2855,85.1200
162.4855,85.1200
162.5237,85.1124
162.5562,85.0907
162.5779,85.0583
162.5855,85.0200
162.5855,84.7600
162.5779,84.7217
162.5562,84.6893
162.5237,84.6676
162.4855,84.6600
Z" /> 
<path style="fill:#000000; fill-opacity:1.0000; stroke:none;fill-rule:evenodd;"
d="M 168.7838,103.5440
170.1838,103.5440
170.1838,103.0440
168.7838,103.0440
Z" /> 
<path style="fill:#000000; fill-opacity:1.0000; stroke:none;fill-rule:evenodd;"
d="M 168.7838,102.5440
170.1838,102.5440
170.1838,102.0440
168.7838,102.0440
Z" /> 
<path style="fill:#000000; fill-opacity:1.0000; stroke:none;fill-rule:evenodd;"
d="M 166.0338,101.7940
168.0338,101.7940
168.0338,100.5940
166.0338,100.5940
Z" /> 
<path style="fill:#000000; fill-opacity:1.0000; stroke:none;fill-rule:evenodd;"
d="M 166.0338,104.9940
168.0338,104.9940
168.0338,103.7940
166.0338,103.7940
Z" /> 
</g>
<g style="fill:#000000; fill-opacity:1.0000; stroke:none;">
<circle cx="149.5778" cy="89.3240" r="0.5000" /> 
<path style="fill:#000000; fill-opacity:1.0000; stroke:none;fill-rule:evenodd;"
d="M 153.6938,90.0640
153.7321,90.0564
153.7645,90.0347
153.7862,90.0023
153.7938,89.9640
153.7938,89.7040
153.7862,89.6658
153.7645,89.6333
153.7321,89.6116
153.6938,89.6040
153.4938,89.6040
153.4555,89.6116
153.4231,89.6333
153.4014,89.6658
153.3938,89.7040
153.3938,89.9640
153.4014,90.0023
153.4231,90.0347
153.4555,90.0564
153.4938,90.0640
Z" /> 
<path style="fill:#000000; fill-opacity:1.0000; stroke:none;fill-rule:evenodd;"
d="M 153.6938,89.4240
153.7321,89.4164
153.7645,89.3947
153.7862,89.3623
153.7938,89.3240
153.7938,89.0640
153.7862,89.0258
153.7645,88.9933
153.7321,88.9716
153.6938,88.9640
153.4938,88.9640
153.4555,88.9716
153.4231,88.9933
153.4014,89.0258
153.3938,89.0640
153.3938,89.3240
153.4014,89.3623
153.4231,89.3947
153.4555,89.4164
153.4938,89.4240
Z" /> 
<path style="fill:#000000; fill-opacity:1.0000; stroke:none;fill-rule:evenodd;"
d="M 154.6838,88.4640
154.6945,88.5176
154.7248,88.5630
154.7702,88.5934
154.8238,88.6040
155.1038,88.6040
155.1574,88.5934
155.2028,88.5630
155.2331,88.5176
155.2438,88.4640
155.2438,88.1240
155.2331,88.0705
155.2028,88.0250
155.1574,87.9947
155.1038,87.9840
154.8238,87.9840
154.7702,87.9947
154.7248,88.0250
154.6945,88.0705
154.6838,88.1240
Z" /> 
<path style="fill:#000000; fill-opacity:1.0000; stroke:none;fill-rule:evenodd;"
d="M 155.6438,88.4640
155.6545,88.5176
155.6848,88.5630
155.7302,88.5934
155.7838,88.6040
156.0638,88.6040
156.1174,88.5934
156.1628,88.5630
156.1931,88.5176
156.2038,88.4640
156.2038,88.1240
156.1931,88.0705
156.1628,88.0250
156.1174,87.9947
156.0638,87.9840
155.7838,87.9840
155.7302,87.9947
155.6848,88.0250
155.6545,88.0705
155.6438,88.1240
Z" /> 
<path style="fill:#000000; fill-opacity:1.0000; stroke:none;fill-rule:evenodd;"
d="M 155.5438,90.5340
155.5362,90.4958
155.5145,90.4633
155.4821,90.4416
155.4438,90.4340
155.1838,90.4340
155.1455,90.4416
155.1131,90.4633
155.0914,90.4958
155.0838,90.5340
155.0838,90.7340
155.0914,90.7723
155.1131,90.8047
155.1455,90.8264
155.1838,90.8340
155.4438,90.8340
155.4821,90.8264
155.5145,90.8047
155.5362,90.7723
155.5438,90.7340
Z" /> 
<path style="fill:#000000; fill-opacity:1.0000; stroke:none;fill-rule:evenodd;"
d="M 154.9038,90.5340
154.8962,90.4958
154.8745,90.4633
154.8421,90.4416
154.8038,90.4340
154.5438,90.4340
154.5055,90.4416
154.4731,90.4633
154.4514,90.4958
154.4438,90.5340
154.4438,90.7340
154.4514,90.7723
154.4731,90.8047
154.5055,90.8264
154.5438,90.8340
154.8038,90.8340
154.8421,90.8264
154.8745,90.8047
154.8962,90.7723
154.9038,90.7340
Z" /> 
<path style="fill:#000000; fill-opacity:1.0000; stroke:none;fill-rule:evenodd;"
d="M 158.6122,90.0750
158.6122,90.7400
158.8922,90.7400
158.8922,90.0750
Z" /> 
<path style="fill:#000000; fill-opacity:1.0000; stroke:none;fill-rule:evenodd;"
d="M 159.1122,90.0750
159.1122,90.7400
159.3922,90.7400
159.3922,90.0750
Z" /> 
<path style="fill:#000000; fill-opacity:1.0000; stroke:none;fill-rule:evenodd;"
d="M 159.6122,90.0750
159.6122,90.7400
159.8922,90.7400
159.8922,90.0750
Z" /> 
<path style="fill:#000000; fill-opacity:1.0000; stroke:none;fill-rule:evenodd;"
d="M 160.1122,90.0750
160.1122,90.7400
160.3922,90.7400
160.3922,90.0750
Z" /> 
<path style="fill:#000000; fill-opacity:1.0000; stroke:none;fill-rule:evenodd;"
d="M 160.6122,90.0750
160.6122,90.7400
160.8922,90.7400
160.8922,90.0750
Z" /> 
<path style="fill:#000000; fill-opacity:1.0000; stroke:none;fill-rule:evenodd;"
d="M 161.3272,89.3600
161.3272,89.6400
161.9922,89.6400
161.9922,89.3600
Z" /> 
<path style="fill:#000000; fill-opacity:1.0000; stroke:none;fill-rule:evenodd;"
d="M 161.3272,88.8600
161.3272,89.1400
161.9922,89.1400
161.9922,88.8600
Z" /> 
<path style="fill:#000000; fill-opacity:1.0000; stroke:none;fill-rule:evenodd;"
d="M 161.3272,88.3600
161.3272,88.6400
161.9922,88.6400
161.9922,88.3600
Z" /> 
<path style="fill:#000000; fill-opacity:1.0000; stroke:none;fill-rule:evenodd;"
d="M 161.3272,87.8600
161.3272,88.1400
161.9922,88.1400
161.9922,87.8600
Z" /> 
<path style="fill:#000000; fill-opacity:1.0000; stroke:none;fill-rule:evenodd;"
d="M 161.3272,87.3600
161.3272,87.6400
161.9922,87.6400
161.9922,87.3600
Z" /> 
<path style="fill:#000000; fill-opacity:1.0000; stroke:none;fill-rule:evenodd;"
d="M 160.6122,86.2600
160.6122,86.9250
160.8922,86.9250
160.8922,86.2600
Z" /> 
<path style="fill:#000000; fill-opacity:1.0000; stroke:none;fill-rule:evenodd;"
d="M 160.1122,86.2600
160.1122,86.9250
160.3922,86.9250
160.3922,86.2600
Z" /> 
<path style="fill:#000000; fill-opacity:1.0000; stroke:none;fill-rule:evenodd;"
d="M 159.6122,86.2600
159.6122,86.9250
159.8922,86.9250
159.8922,86.2600
Z" /> 
<path style="fill:#000000; fill-opacity:1.0000; stroke:none;fill-rule:evenodd;"
d="M 159.1122,86.2600
159.1122,86.9250
159.3922,86.9250
159.3922,86.2600
Z" /> 
<path style="fill:#000000; fill-opacity:1.0000; stroke:none;fill-rule:evenodd;"
d="M 158.6122,86.2600
158.6122,86.9250
158.8922,86.9250
158.8922,86.2600
Z" /> 
<path style="fill:#000000; fill-opacity:1.0000; stroke:none;fill-rule:evenodd;"
d="M 157.5122,87.3600
157.5122,87.6400
158.1772,87.6400
158.1772,87.3600
Z" /> 
<path style="fill:#000000; fill-opacity:1.0000; stroke:none;fill-rule:evenodd;"
d="M 157.5122,87.8600
157.5122,88.1400
158.1772,88.1400
158.1772,87.8600
Z" /> 
<path style="fill:#000000; fill-opacity:1.0000; stroke:none;fill-rule:evenodd;"
d="M 157.5122,88.3600
157.5122,88.6400
158.1772,88.6400
158.1772,88.3600
Z" /> 
<path style="fill:#000000; fill-opacity:1.0000; stroke:none;fill-rule:evenodd;"
d="M 157.5122,88.8600
157.5122,89.1400
158.1772,89.1400
158.1772,88.8600
Z" /> 
<path style="fill:#000000; fill-opacity:1.0000; stroke:none;fill-rule:evenodd;"
d="M 157.5122,89.3600
157.5122,89.6400
158.1772,89.6400
158.1772,89.3600
Z" /> 
<path style="fill:#000000; fill-opacity:1.0000; stroke:none;fill-rule:evenodd;"
d="M 158.7522,87.5000
158.7522,89.5000
160.7522,89.5000
160.7522,87.5000
Z" /> 
</g>
<g style="fill:#000000; fill-opacity:1.0000; stroke:none;">
<circle cx="149.5778" cy="83.7540" r="0.5000" /> 
<path style="fill:#000000; fill-opacity:1.0000; stroke:none;fill-rule:evenodd;"
d="M 152.7338,88.9640
152.6955,88.9716
152.6631,88.9933
152.6414,89.0258
152.6338,89.0640
152.6338,89.3240
152.6414,89.3623
152.6631,89.3947
152.6955,89.4164
152.7338,89.4240
152.9338,89.4240
152.9721,89.4164
153.0045,89.3947
153.0262,89.3623
153.0338,89.3240
153.0338,89.0640
153.0262,89.0258
153.0045,88.9933
152.9721,88.9716
152.9338,88.9640
Z" /> 
<path style="fill:#000000; fill-opacity:1.0000; stroke:none;fill-rule:evenodd;"
d="M 152.7338,89.6040
152.6955,89.6116
152.6631,89.6333
152.6414,89.6658
152.6338,89.7040
152.6338,89.9640
152.6414,90.0023
152.6631,90.0347
152.6955,90.0564
152.7338,90.0640
152.9338,90.0640
152.9721,90.0564
153.0045,90.0347
153.0262,90.0023
153.0338,89.9640
153.0338,89.7040
153.0262,89.6658
153.0045,89.6333
152.9721,89.6116
152.9338,89.6040
Z" /> 
<path style="fill:#000000; fill-opacity:1.0000; stroke:none;fill-rule:evenodd;"
d="M 161.5272,84.0200
161.4889,84.0276
161.4564,84.0493
161.4348,84.0817
161.4272,84.1200
161.4272,84.3800
161.4348,84.4183
161.4564,84.4507
161.4889,84.4724
161.5272,84.4800
161.7272,84.4800
161.7654,84.4724
161.7979,84.4507
161.8195,84.4183
161.8272,84.3800
161.8272,84.1200
161.8195,84.0817
161.7979,84.0493
161.7654,84.0276
161.7272,84.0200
Z" /> 
<path style="fill:#000000; fill-opacity:1.0000; stroke:none;fill-rule:evenodd;"
d="M 161.5272,84.6600
161.4889,84.6676
161.4564,84.6893
161.4348,84.7217
161.4272,84.7600
161.4272,85.0200
161.4348,85.0583
161.4564,85.0907
161.4889,85.1124
161.5272,85.1200
161.7272,85.1200
161.7654,85.1124
161.7979,85.0907
161.8195,85.0583
161.8272,85.0200
161.8272,84.7600
161.8195,84.7217
161.7979,84.6893
161.7654,84.6676
161.7272,84.6600
Z" /> 
<path style="fill:#000000; fill-opacity:1.0000; stroke:none;fill-rule:evenodd;"
d="M 162.9638,85.8840
162.9714,85.9223
162.9931,85.9547
163.0255,85.9764
163.0638,85.9840
163.3238,85.9840
163.3621,85.9764
163.3945,85.9547
163.4162,85.9223
163.4238,85.8840
163.4238,85.6840
163.4162,85.6458
163.3945,85.6133
163.3621,85.5916
163.3238,85.5840
163.0638,85.5840
163.0255,85.5916
162.9931,85.6133
162.9714,85.6458
162.9638,85.6840
Z" /> 
<path style="fill:#000000; fill-opacity:1.0000; stroke:none;fill-rule:evenodd;"
d="M 163.6038,85.8840
163.6114,85.9223
163.6331,85.9547
163.6655,85.9764
163.7038,85.9840
163.9638,85.9840
164.0021,85.9764
164.0345,85.9547
164.0562,85.9223
164.0638,85.8840
164.0638,85.6840
164.0562,85.6458
164.0345,85.6133
164.0021,85.5916
163.9638,85.5840
163.7038,85.5840
163.6655,85.5916
163.6331,85.6133
163.6114,85.6458
163.6038,85.6840
Z" /> 
<path style="fill:#000000; fill-opacity:1.0000; stroke:none;fill-rule:evenodd;"
d="M 174.8629,103.2940
174.8629,103.8645
175.4335,103.8645
175.4335,104.2710
174.8629,104.2710
174.8629,104.8337
174.4565,104.8337
174.4565,104.2710
173.8938,104.2710
173.8938,103.8645
174.4565,103.8645
174.4565,103.2940
Z" /> 
<path style="fill:#000000; fill-opacity:1.0000; stroke:none;fill-rule:evenodd;"
d="M 174.4509,101.6021
174.4509,100.7189
174.8651,100.7189
174.8651,101.6021
Z" /> 
</g>
<g style="fill:none; 
stroke:#000000; stroke-width:0.1200; stroke-opacity:1; 
stroke-linecap:round; stroke-linejoin:round;">
<path d="M159.1216 91.6240
L158.9060 91.6240
" />
<path d="M159.1216 92.3440
L158.9060 92.3440
" />
</g>
<g style="fill:none; 
stroke:#000000; stroke-width:0.2500; stroke-opacity:1; 
stroke-linecap:round; stroke-linejoin:round;">
<path d="M181.1697 83.3215
L178.1797 83.3215
" />
<path d="M181.1697 98.5615
L181.1697 83.3215
" />
<path d="M181.1697 98.5615
L178.2297 98.5615
" />
<path d="M175.4397 83.3415
L168.2697 83.3415
" />
<path d="M168.2697 83.3415
L168.2697 85.8315
" />
<path d="M168.2697 85.8315
L168.2697 85.8215
" />
<path d="M168.2197 98.5815
L175.3797 98.5815
" />
<path d="M166.1697 85.8315
L168.2697 85.8315
" />
<path d="M166.1697 86.6215
L166.1697 85.8315
" />
<path d="M166.1697 86.6215
L166.1697 88.4715
" />
<circle cx="166.9197" cy="88.2315" r="0.1750" /> 
</g>
<g style="fill:none; 
stroke:#000000; stroke-width:0.2540; stroke-opacity:1; 
stroke-linecap:round; stroke-linejoin:round;">
<path d="M162.3022 99.5855
L162.3022 95.9475
" />
<path d="M162.3022 102.4855
L162.3022 101.6475
" />
<path d="M162.3022 105.9165
L162.3022 104.5475
" />
<path d="M162.3022 105.9165
L155.9022 105.9165
" />
<path d="M162.2877 93.8835
L156.9282 93.8835
" />
<path d="M161.6322 106.0115
L161.6422 105.9365
" />
<path d="M161.6322 107.9565
L161.6322 106.0115
" />
<path d="M156.9282 93.8835
L156.9282 93.8710
" />
<path d="M156.5627 105.9165
L156.5627 107.9565
" />
<path d="M156.5627 107.9565
L161.6322 107.9565
" />
<path d="M155.9022 95.4855
L155.9022 95.3475
" />
<path d="M155.9022 102.5855
L155.9022 97.5475
" />
<path d="M155.9022 105.9165
L155.9022 104.6475
" />
</g>
<g style="fill:none; 
stroke:#000000; stroke-width:0.1200; stroke-opacity:1; 
stroke-linecap:round; stroke-linejoin:round;">
<path d="M161.0116 91.6340
L160.7960 91.6340
" />
<path d="M161.0116 92.3540
L160.7960 92.3540
" />
<path d="M155.3360 86.9540
L155.5516 86.9540
" />
<path d="M155.3360 87.6740
L155.5516 87.6740
" />
<path d="M173.1022 103.1000
L173.1022 105.0000
" />
<path d="M173.1022 105.0000
L171.2022 105.0000
" />
<path d="M171.2022 103.1000
L173.1022 103.1000
" />
<path d="M171.2022 105.0000
L171.2022 103.1000
" />
</g>
<g style="fill:none; 
stroke:#000000; stroke-width:0.1520; stroke-opacity:1; 
stroke-linecap:round; stroke-linejoin:round;">
<circle cx="151.0022" cy="97.9500" r="2.1000" /> 
</g>
<g style="fill:none; 
stroke:#000000; stroke-width:0.1200; stroke-opacity:1; 
stroke-linecap:round; stroke-linejoin:round;">
<path d="M173.0922 100.4300
L173.0922 102.3300
" />
<path d="M173.0922 102.3300
L171.1922 102.3300
" />
<path d="M171.1922 100.4300
L173.0922 100.4300
" />
<path d="M171.1922 102.3300
L171.1922 100.4300
" />
</g>
<g style="fill:none; 
stroke:#000000; stroke-width:0.2540; stroke-opacity:1; 
stroke-linecap:round; stroke-linejoin:round;">
<path d="M169.2338 100.6190
L169.2338 101.7940
" />
<path d="M169.2338 100.6190
L168.2838 100.6190
" />
<path d="M169.2338 103.7940
L169.2338 104.9690
" />
<path d="M169.2338 104.9690
L168.2838 104.9690
" />
<path d="M166.0838 103.5940
L166.0838 101.9940
" />
<circle cx="169.7828" cy="104.3180" r="0.1795" /> 
</g>
<g style="fill:none; 
stroke:#000000; stroke-width:0.1200; stroke-opacity:1; 
stroke-linecap:round; stroke-linejoin:round;">
<path d="M155.3360 87.9340
L155.5516 87.9340
" />
<path d="M155.3360 88.6540
L155.5516 88.6540
" />
</g>
<g style="fill:none; 
stroke:#000000; stroke-width:0.1525; stroke-opacity:1; 
stroke-linecap:round; stroke-linejoin:round;">
<path d="M161.8282 86.4240
L161.0827 86.4240
" />
<path d="M161.8282 87.1695
L161.8282 86.4240
" />
<path d="M161.8282 89.8305
L161.8282 90.5760
" />
<path d="M161.8282 90.5760
L161.0827 90.5760
" />
<path d="M157.6762 86.4240
L158.4217 86.4240
" />
<path d="M157.6762 87.1695
L157.6762 86.4240
" />
<path d="M157.6762 89.8305
L157.6762 90.5760
" />
<path d="M157.6762 90.5760
L158.4217 90.5760
" />
</g>
<g style="fill:none; 
stroke:#000000; stroke-width:0.1500; stroke-opacity:1; 
stroke-linecap:round; stroke-linejoin:round;">
<circle cx="158.7522" cy="91.0400" r="0.0750" /> 
</g>
<g style="fill:none; 
stroke:#000000; stroke-width:0.0500; stroke-opacity:1; 
stroke-linecap:round; stroke-linejoin:round;">
<path d="M181.4517 82.7786
L148.3868 82.7532
" />
<path d="M179.4238 106.0416 A2.0320 2.0320 0.0 0 0 181.4558 104.0096" />
<path d="M148.3850 104.0096 A2.0321 2.0321 0.0 0 0 150.4170 106.0416" />
<path d="M148.3838 97.9360
L148.3868 82.7532
" />
<path d="M181.4546 97.9360
L181.4517 82.7786
" />
<path d="M148.3838 97.9360
L148.3850 104.0096
" />
<path d="M150.4170 106.0416
L179.4238 106.0416
" />
<path d="M181.4546 97.9360
L181.4558 104.0096
" />
<path style="fill:#000000; fill-opacity:1.0000; stroke:none;fill-rule:evenodd;"
d="M 154.8374,84.7728
154.7696,84.8120
154.7142,84.8674
154.6750,84.9352
154.6548,85.0108
154.6548,85.0892
154.6750,85.1648
154.7142,85.2326
154.7696,85.2880
154.8374,85.3272
154.9130,85.3474
154.9914,85.3474
155.0670,85.3272
155.1348,85.2880
155.1902,85.2326
155.2294,85.1648
155.2496,85.0892
155.2496,85.0108
155.2294,84.9352
155.1902,84.8674
155.1348,84.8120
155.0670,84.7728
154.9914,84.7526
154.9130,84.7526
Z" /> 
<path style="fill:#000000; fill-opacity:1.0000; stroke:none;fill-rule:evenodd;"
d="M 154.8374,88.8728
154.7696,88.9120
154.7142,88.9674
154.6750,89.0352
154.6548,89.1108
154.6548,89.1892
154.6750,89.2648
154.7142,89.3326
154.7696,89.3880
154.8374,89.4272
154.9130,89.4474
154.9914,89.4474
155.0670,89.4272
155.1348,89.3880
155.1902,89.3326
155.2294,89.2648
155.2496,89.1892
155.2496,89.1108
155.2294,89.0352
155.1902,88.9674
155.1348,88.9120
155.0670,88.8728
154.9914,88.8526
154.9130,88.8526
Z" /> 
<path style="fill:#000000; fill-opacity:1.0000; stroke:none;fill-rule:evenodd;"
d="M 175.4874,84.7728
175.4196,84.8120
175.3642,84.8674
175.3250,84.9352
175.3048,85.0108
175.3048,85.0892
175.3250,85.1648
175.3642,85.2326
175.4196,85.2880
175.4874,85.3272
175.5630,85.3474
175.6414,85.3474
175.7170,85.3272
175.7848,85.2880
175.8402,85.2326
175.8794,85.1648
175.8996,85.0892
175.8996,85.0108
175.8794,84.9352
175.8402,84.8674
175.7848,84.8120
175.7170,84.7728
175.6414,84.7526
175.5630,84.7526
Z" /> 
<path style="fill:#000000; fill-opacity:1.0000; stroke:none;fill-rule:evenodd;"
d="M 175.4874,88.8728
175.4196,88.9120
175.3642,88.9674
175.3250,89.0352
175.3048,89.1108
175.3048,89.1892
175.3250,89.2648
175.3642,89.3326
175.4196,89.3880
175.4874,89.4272
175.5630,89.4474
175.6414,89.4474
175.7170,89.4272
175.7848,89.3880
175.8402,89.3326
175.8794,89.2648
175.8996,89.1892
175.8996,89.1108
175.8794,89.0352
175.8402,88.9674
175.7848,88.9120
175.7170,88.8728
175.6414,88.8526
175.5630,88.8526
Z" /> 
<path style="fill:#000000; fill-opacity:1.0000; stroke:none;fill-rule:evenodd;"
d="M 158.8717,95.9087
158.7330,95.9816
158.6157,96.0855
158.5267,96.2144
158.4711,96.3609
158.4522,96.5165
158.4711,96.6721
158.5267,96.8186
158.6157,96.9475
158.7330,97.0514
158.8717,97.1243
159.0239,97.1618
159.1805,97.1618
159.3327,97.1243
159.4714,97.0514
159.5887,96.9475
159.6777,96.8186
159.7333,96.6721
159.7522,96.5165
159.7333,96.3609
159.6777,96.2144
159.5887,96.0855
159.4714,95.9816
159.3327,95.9087
159.1805,95.8712
159.0239,95.8712
Z" /> 
<path style="fill:#000000; fill-opacity:1.0000; stroke:none;fill-rule:evenodd;"
d="M 158.8717,102.9087
158.7330,102.9816
158.6157,103.0855
158.5267,103.2144
158.4711,103.3609
158.4522,103.5165
158.4711,103.6721
158.5267,103.8186
158.6157,103.9475
158.7330,104.0514
158.8717,104.1243
159.0239,104.1618
159.1805,104.1618
159.3327,104.1243
159.4714,104.0514
159.5887,103.9475
159.6777,103.8186
159.7333,103.6721
159.7522,103.5165
159.7333,103.3609
159.6777,103.2144
159.5887,103.0855
159.4714,102.9816
159.3327,102.9087
159.1805,102.8712
159.0239,102.8712
Z" /> 
</g> 
</svg>
